# xmcd CD database file
#
# Track frame offsets:
#	150
#	21399
#	42800
#	64056
#
# Disc length: 1137 seconds
#
# Revision: 2
# Processed by: cddbd v1.5.2PL0 Copyright (c) Steve Scherf et al.
# Submitted via: CDex 1.70beta3
#
DISCID=2e046f04
DTITLE=THE YELLOW MONKEY - 砂の塔
DYEAR=2016
DGENRE=J-Rock
TTITLE0=砂の塔
TTITLE1=ALRIGHT
TTITLE2=砂の塔 -Instrumental-
TTITLE3=ALRIGHT -Instrumental-
EXTD=YEAR: 2016
EXTT0=
EXTT1=
EXTT2=
EXTT3=
PLAYORDER=
